<svg id="Layer_1" data-name="Layer 1" xmlns="http://www.w3.org/2000/svg" viewBox="0 0 199 98.77"><defs><style>.cls-1{fill:#e3ff80;}</style></defs><path class="cls-1" d="M167,111s-79,4.89-80-91" transform="translate(-7 -12.25)"/><path d="M46.79,101.08a2.63,2.63,0,0,1-2.61-2.61V36.1a2.65,2.65,0,0,1,2.61-2.61H66.48a2.65,2.65,0,0,1,2.61,2.61V98.47a2.63,2.63,0,0,1-2.61,2.61Zm.77-72.41A1.37,1.37,0,0,1,46,27.12a1.7,1.7,0,0,1,.49-1.25l9.65-11.78a5.48,5.48,0,0,1,1.79-1.55,4.9,4.9,0,0,1,1.79-.29H78.65c1.22,0,1.83.65,1.83,1.93A1.57,1.57,0,0,1,80,15.34L65.81,27a9.52,9.52,0,0,1-1.64,1.15,4.94,4.94,0,0,1-2.42.49Z" transform="translate(-7 -12.25)"/><path d="M110.32,102.05A46.3,46.3,0,0,1,93.9,99.34a24.21,24.21,0,0,1-11.34-8.49q-4.2-5.8-4.58-15-.11-4-.1-8.5t.1-8.69q.38-9,4.68-14.77a25.41,25.41,0,0,1,11.49-8.59,44.16,44.16,0,0,1,16.17-2.8,50.32,50.32,0,0,1,11.92,1.4,33.71,33.71,0,0,1,10.38,4.39,21.73,21.73,0,0,1,10.24,18.93,2.15,2.15,0,0,1-2.13,2.12H121a3.4,3.4,0,0,1-2.27-.63,5.32,5.32,0,0,1-1.31-2.17,7.24,7.24,0,0,0-2.89-4.15,8.55,8.55,0,0,0-4.35-1.06,7.31,7.31,0,0,0-5.07,1.69c-1.25,1.12-1.94,3.17-2.07,6.13q-.3,7.92,0,16.22.19,4.44,2.07,6.13a7.31,7.31,0,0,0,5.07,1.69,8.28,8.28,0,0,0,4.4-1.16A7.19,7.19,0,0,0,117.46,78a4.19,4.19,0,0,1,1.26-2.22A3.88,3.88,0,0,1,121,75.2h19.69a2.09,2.09,0,0,1,1.5.63,2,2,0,0,1,.63,1.5,21.7,21.7,0,0,1-10.24,18.92,33.73,33.73,0,0,1-10.38,4.4A50.32,50.32,0,0,1,110.32,102.05Z" transform="translate(-7 -12.25)"/><path d="M153.09,101.08a2.63,2.63,0,0,1-2.61-2.61V36.1a2.65,2.65,0,0,1,2.61-2.61h49.53a2.66,2.66,0,0,1,2.61,2.61V49.72a2.65,2.65,0,0,1-2.61,2.6h-29v6.09H200.5a2.63,2.63,0,0,1,2.6,2.6V73.56a2.63,2.63,0,0,1-2.6,2.61H173.65v6.08h29.74A2.63,2.63,0,0,1,206,84.86V98.47a2.63,2.63,0,0,1-2.61,2.61Z" transform="translate(-7 -12.25)"/><path class="cls-1" d="M7,111s79,4.89,80-91" transform="translate(-7 -12.25)"/></svg>